<svg xmlns="http://www.w3.org/2000/svg" width="512" height="512" viewBox="0 0 256 256" fill="none">
  <defs>
    <linearGradient id="bg" x1="30" y1="24" x2="226" y2="232" gradientUnits="userSpaceOnUse">
      <stop offset="0" stop-color="#60A5FA" />
      <stop offset="0.5" stop-color="#3B82F6" />
      <stop offset="1" stop-color="#1E40AF" />
    </linearGradient>
  </defs>
  <rect x="20" y="20" width="216" height="216" rx="52" fill="url(#bg)" />
  <path
    d="M88 56h60l36 36v68c0 8.837-7.163 16-16 16h-80c-8.837 0-16-7.163-16-16V72c0-8.837 7.163-16 16-16Z"
    stroke="#FFFFFF"
    stroke-width="14"
    stroke-linecap="round"
    stroke-linejoin="round"
  />
  <path
    d="M148 56v28c0 4.418 3.582 8 8 8h28"
    stroke="#FFFFFF"
    stroke-width="14"
    stroke-linecap="round"
    stroke-linejoin="round"
  />
  <path
    d="M98 152v-34l16 16 16-16v34"
    stroke="#FFFFFF"
    stroke-width="14"
    stroke-linecap="round"
    stroke-linejoin="round"
  />
  <path
    d="m154 142 16 16 16-16"
    stroke="#FFFFFF"
    stroke-width="14"
    stroke-linecap="round"
    stroke-linejoin="round"
  />
  <path
    d="M170 118v40"
    stroke="#FFFFFF"
    stroke-width="14"
    stroke-linecap="round"
    stroke-linejoin="round"
  />
</svg>
